<!DOCTYPE svg PUBLIC "-//W3C//DTD SVG 1.1//EN" "http://www.w3.org/Graphics/SVG/1.1/DTD/svg11.dtd">
<!-- Uploaded to: SVG Repo, www.svgrepo.com, Transformed by: SVG Repo Mixer Tools -->
<svg height="800px" width="800px" version="1.1" id="Layer_1" xmlns="http://www.w3.org/2000/svg" xmlns:xlink="http://www.w3.org/1999/xlink" viewBox="0 0 512 512" xml:space="preserve" fill="#000000">
<g id="SVGRepo_bgCarrier" stroke-width="0"/>
<g id="SVGRepo_tracerCarrier" stroke-linecap="round" stroke-linejoin="round"/>
<g id="SVGRepo_iconCarrier"> <path style="fill:#65B4BB;" d="M285.879,107.922c81.281,44.033,136.477,130.074,136.477,229.015c0,1.724-0.014,3.433-0.054,5.157 c-4.144,214.024-326.302,214.024-330.46,0c-0.028-1.724-0.041-3.433-0.041-5.157c0-98.941,55.181-184.983,136.463-229.015"/> <path style="fill:#57A3A7;" d="M257.079,502.606c-81.583,0-163.153-53.494-165.229-160.507c-0.038-1.721-0.051-3.443-0.051-5.165 c0-98.937,55.19-184.976,136.469-229.014h11.354c-49.266,44.038-82.697,130.077-82.697,229.014c0,1.721,0,3.443,0.025,5.165 C158.205,449.112,207.648,502.606,257.079,502.606z"/> <path style="fill:#65B4BB;" d="M269.451,75.085c33.924-15.392,63.962-37.836,88.241-65.481H156.463 c24.279,27.646,54.317,50.089,88.228,65.481"/> <path style="fill:#57A3A7;" d="M217.223,9.604c9.62,27.646,21.519,50.089,34.95,65.481h-7.481 c-33.912-15.392-63.95-37.836-88.228-65.481C156.463,9.604,217.223,9.604,217.223,9.604z"/> <path style="fill:#FED159;" d="M304.266,75.09h-94.381c-9.066,0-16.414,7.349-16.414,16.414l0,0c0,9.066,7.349,16.414,16.414,16.414 h94.382c9.066,0,16.414-7.349,16.414-16.414l0,0C320.68,82.44,313.331,75.09,304.266,75.09z"/> <path d="M409.967,403.584c-4.771-2.187-10.403-0.097-12.589,4.666c-14.781,32.186-40.513,56.85-74.414,71.324 c-31.647,13.51-68.126,16.979-102.711,9.768c-33.42-6.967-62.193-23.118-83.203-46.707c-23.631-26.529-36.01-60.455-36.794-100.8 c-0.027-1.673-0.039-3.334-0.039-5.008c0-74.802,33.023-145.145,90.602-192.991c4.034-3.351,4.586-9.337,1.235-13.37 c-3.351-4.033-9.338-4.584-13.37-1.234c-61.936,51.465-97.456,127.13-97.456,207.595c0,1.773,0.014,3.533,0.042,5.341 c1.98,101.863,71.09,152.416,135.107,165.762c13.058,2.723,26.365,4.07,39.626,4.07c25.691,0,51.21-5.056,74.416-14.963 c38.313-16.357,67.432-44.319,84.213-80.862C416.82,411.408,414.732,405.772,409.967,403.584z"/> <path d="M314.267,114.779c8.751-4.163,14.829-13.066,14.829-23.385c0-13.515-10.405-24.629-23.623-25.791 c21.627-13.772,41.4-30.631,58.274-49.845c2.46-2.801,3.052-6.784,1.515-10.18C363.726,2.182,360.342,0,356.614,0H155.386 c-3.728,0-7.111,2.182-8.649,5.579c-1.537,3.396-0.944,7.379,1.515,10.18c16.872,19.211,36.645,36.07,58.27,49.845 C193.303,66.766,182.9,77.88,182.9,91.394c0,14.286,11.623,25.908,25.909,25.908h73.537 c79.899,44.252,129.437,128.142,129.437,219.525c0,1.648-0.013,3.284-0.053,4.973c-0.194,10.081-1.146,19.93-2.828,29.275 c-0.928,5.161,2.503,10.098,7.663,11.025c0.568,0.103,1.134,0.152,1.692,0.152c4.508,0,8.506-3.223,9.333-7.814 c1.859-10.332,2.91-21.189,3.124-32.231c0.042-1.797,0.057-3.582,0.057-5.381C430.772,247.51,386.778,164.848,314.267,114.779z M334.362,18.987c-19.982,19.086-43.182,34.944-68.107,46.499h-20.523c-24.919-11.557-48.117-27.418-68.094-46.499H334.362z M201.887,91.394c0-3.815,3.105-6.92,6.922-6.92h94.382c3.816,0,6.92,3.105,6.92,6.92c0,3.816-3.104,6.92-6.92,6.92h-94.382 C204.992,98.314,201.887,95.211,201.887,91.394z"/> <path d="M287.253,352.735h-78.312c-5.244,0-9.494,4.251-9.494,9.494c0,5.243,4.249,9.494,9.494,9.494h37.566v23.119 c0,5.243,4.249,9.494,9.494,9.494c5.244,0,9.494-4.251,9.494-9.494v-23.119h21.758c13.951,0,25.299-11.349,25.299-25.299v-25.461 c0-13.949-11.349-25.299-25.299-25.299h-62.507c-3.48,0-6.311-2.832-6.311-6.311v-25.461c0-3.481,2.832-6.311,6.311-6.311h78.312 c5.244,0,9.494-4.251,9.494-9.494s-4.249-9.494-9.494-9.494h-37.565v-23.119c0-5.243-4.249-9.494-9.494-9.494 c-5.244,0-9.494,4.251-9.494,9.494v23.119h-21.76c-13.951,0-25.299,11.349-25.299,25.299v25.461 c0,13.951,11.349,25.299,25.299,25.299h62.507c3.48,0,6.311,2.832,6.311,6.311v25.461 C293.565,349.903,290.733,352.735,287.253,352.735z"/> </g>
</svg>