<!DOCTYPE svg PUBLIC "-//W3C//DTD SVG 1.1//EN" "http://www.w3.org/Graphics/SVG/1.1/DTD/svg11.dtd">
<!-- Uploaded to: SVG Repo, www.svgrepo.com, Transformed by: SVG Repo Mixer Tools -->
<svg version="1.1" id="Layer_1" xmlns="http://www.w3.org/2000/svg" xmlns:xlink="http://www.w3.org/1999/xlink" viewBox="0 0 512 512" xml:space="preserve" width="800px" height="800px" fill="#000000">
<g id="SVGRepo_bgCarrier" stroke-width="0"/>
<g id="SVGRepo_tracerCarrier" stroke-linecap="round" stroke-linejoin="round"/>
<g id="SVGRepo_iconCarrier"> <rect x="12.8" y="12.8" style="fill:#7c6c03;" width="486.4" height="435.2"/> <rect x="89.6" y="89.6" style="fill:#e2bd36;" width="332.8" height="281.6"/> <circle style="fill:#7c6c03;" cx="192.486" cy="230.4" r="51.2"/> <g> <path style="fill:#d3d624;" d="M486.4,0H25.6C11.46,0,0,11.46,0,25.6v409.6c0,14.14,11.46,25.6,25.6,25.6h460.8 c14.14,0,25.6-11.46,25.6-25.6V25.6C512,11.46,500.54,0,486.4,0z M486.4,435.2H25.6V25.6h460.8V435.2z"/> <rect x="51.2" y="486.4" style="fill:#d3d624;" width="76.8" height="25.6"/> <rect x="384" y="486.4" style="fill:#d3d624;" width="76.8" height="25.6"/> <path style="fill:#d3d624;" d="M192,166.4c-35.345,0-64,28.655-64,64s28.655,64,64,64s64-28.655,64-64S227.345,166.4,192,166.4z M228.045,243.2c-5.299,14.865-19.379,25.6-36.045,25.6c-21.171,0-38.4-17.229-38.4-38.4S170.829,192,192,192 c16.666,0,30.737,10.735,36.045,25.6H204.8v25.6H228.045z"/> <path style="fill:#d3d624;" d="M102.4,384h307.2c14.14,0,25.6-11.46,25.6-25.6v-25.6h25.6v-25.6h-25.6V153.6h25.6V128h-25.6v-25.6 c0-14.14-11.46-25.6-25.6-25.6H102.4c-14.14,0-25.6,11.46-25.6,25.6v256C76.8,372.54,88.26,384,102.4,384z M102.4,102.4h307.2v256 H102.4V102.4z"/> </g> </g>
</svg>